Patient4_TMGait_0pt5_02_right_08_EMG.mot
version=1
nRows=37
nColumns=33
inDegrees=no
endheader
time	1LAddLong	2LGlutMax	3LGlutMed	4LIliopsoas	5LSemiMemb	6LBicFemLong	7LRecFem	8LVastMed	9LVastLat	10LGasMed	11LTibAnt	12lTibPost	13LPeroneusLong	14LSol	15LExtDigLong	16LFlexDigLong	17RAddLong	18RGlutMax	19RGlutMed	20RIliopsoas	21RSemiMemb	22RBicFemLong	23RRecFem	24RVastMed	25RVastLat	26RGasMed	27RTibAnt	28RTibPost	29RPeroneusLong	30RSol	31RExtDigLong	32RFlexDigLong
10.912	-0.002594	-0.096741	-0.07843	-0.001526	-0.00351	-0.022583	0.095825	0.008087	0.10361	-0.15854	0.24338	0.018158	0.058594	0.067902	0.22354	0	-0.027466	-0.25864	-0.25467	0.070801	-0.070496	-0.029907	-0.168	-0.078888	-0.043793	-0.17334	0.056915	-0.13657	0.32089	-1.0435	-0.002899	-0.004272
10.913	-0.005035	-0.15503	-0.10544	0.00473	0.003815	-0.034943	0.18555	0.010986	0.095215	-0.15686	-0.1683	0.016174	0.11231	0.076294	-0.87677	-0.007629	-0.001831	-0.24674	0.054932	0.15701	-0.071716	-0.093842	-0.17044	-0.23636	-0.066833	-0.22049	0.044403	-0.24048	-0.49088	-1.198	0.000458	-0.000305
10.914	-0.012207	-0.13016	-0.12451	-0.012512	0.003815	-0.015717	0.27985	0.012207	0.092621	-0.074005	-0.79407	0.016174	0.002747	-0.084686	-0.84091	-0.021973	0.015259	-0.2832	0.10529	0.1857	-0.10025	-0.10666	-0.15472	-0.19455	-0.085602	-0.098572	-0.004883	-0.50934	-1.295	-0.69061	-0.000458	0.001831
10.915	-0.009003	-0.16861	-0.10498	-0.013733	0.005951	-0.028229	0.35126	0.012817	0.081329	0.019073	-0.53711	0.018311	-0.12817	-0.26443	-1.2285	-0.04364	0.02121	-0.26489	0.28778	0.097961	-0.27176	-0.15579	-0.095825	-0.093842	-0.058441	-0.10529	-0.022278	0.027924	-1.266	-0.36591	0.002441	-0.019226
10.916	-0.010986	-0.1648	-0.10483	-0.009308	0.009155	-0.010223	0.33524	0.006104	0.067749	0.007324	-0.26611	0.015411	-0.18372	-0.29556	-0.57327	-0.045166	-0.003967	-0.20065	0.59647	0.049286	-0.1741	-0.23453	-0.001831	-0.098724	-0.070801	-0.067291	-0.005798	-0.34576	-1.0051	-0.004425	-0.001678	-0.032196
10.917	-0.020599	-0.1648	-0.12512	0.016022	0.010071	-0.002747	0.30868	0.010223	0.055237	-0.001984	-0.029449	0.015411	-0.16083	-0.29037	0.36652	-0.027466	0.010223	-0.062256	0.625	-0.092468	-0.06073	-0.3447	0.015259	-0.05127	-0.084991	-0.074768	0.016174	0.31967	-0.78568	0.4097	-0.002289	-0.030823
10.918	-0.009003	-0.18463	-0.11368	0.020447	0.010223	-0.017395	0.27084	0.010681	0.059814	-0.027313	-0.037842	0.020599	-0.1001	-0.13641	0.59982	-0.041351	0.024109	-0.10819	0.3923	-0.17502	0.33508	-0.39337	0.06897	-0.085602	-0.051422	-0.10757	0.015564	0.62607	-0.10574	1.2352	-0.002594	-0.017395
10.919	-0.01236	-0.20584	-0.11841	0.017853	0.001678	-0.000763	0.30731	-0.000305	0.048981	0.001678	-0.053253	0.0177	-0.076599	-0.13534	0.38284	-0.037537	-0.006714	-0.16815	0.4187	-0.15198	0.090637	-0.16357	0.051117	-0.031281	-0.054779	-0.032959	0.029449	0.2919	0.15854	0.30502	0	-0.025787
10.92	-0.019226	-0.1831	-0.10208	-0.001373	0.006714	0.016632	0.20981	0.004425	0.032196	-0.062408	0.13992	0.028381	-0.032501	-0.15411	0.13992	-0.018463	-0.040588	-0.23254	0.9111	-0.053101	-0.027771	0.042725	0.000305	0.07431	-0.015106	0.072784	0.047455	-0.034027	0.74814	0.16007	-0.001373	-0.018768
10.921	-0.014801	-0.17609	-0.10269	-0.018463	-0.002136	0.028992	0.024567	0.002899	0.070953	-0.11566	0.058746	0.013428	0.071564	-0.045166	0.011597	-0.020752	-0.079651	-0.17731	0.44373	0.13001	-0.14008	0.21469	0.022888	0.13596	-0.011292	0.086823	0.055084	-0.17548	0.71579	0.55435	-0.000763	-0.011444
10.922	-0.014343	-0.215	-0.12177	-0.026245	-0.005035	0.04364	-0.059967	-0.007782	0.095825	-0.17944	-0.20813	0.017853	0.16556	-0.037231	-0.23422	-0.028076	-0.06958	-0.35721	-0.020752	0.23575	-0.16892	0.20828	0.056763	0.13504	0.020599	0.09613	0.11398	-0.57434	0.096588	0.046844	0.000153	-0.013123
10.923	-0.013123	-0.25467	-0.11597	-0.004272	-0.006104	0.024109	-0.11826	-0.00885	0.10819	-0.15839	-0.13412	0.007324	0.15976	-0.062408	0.38208	-0.029144	-0.046082	-0.50384	-0.16663	0.17853	-0.12726	0.19913	-0.000763	0.059662	0.039368	0.065308	0.10727	0.28214	0.16937	-0.19577	0.002136	-0.003357
10.924	-0.010223	-0.25955	-0.09491	-0.005951	-0.003662	0.021667	-0.18341	-0.005646	0.11627	-0.10895	-0.034485	0.00412	0.01236	-0.1297	-0.01709	-0.031738	-0.018921	-0.49576	0.38162	-0.02594	-0.086975	0.25925	0.048218	-0.022583	0.030823	-0.000305	0.1004	0.15427	0.4335	-0.47165	-0.000916	-0.002289
10.925	-0.004425	-0.24765	-0.10956	0.002441	0.003052	0.015259	-0.2034	-0.007324	0.12054	-0.082397	-0.029907	0.00946	-0.078278	-0.18356	0.010681	-0.035553	0.013123	-0.41061	-0.47806	0.036621	0.03479	0.13641	0.12268	-0.088959	0.000305	-0.29159	0.090942	-0.07782	0.66742	-0.9874	-0.001221	-0.011139
10.926	-0.007935	-0.27252	-0.11398	0.00824	-0.002289	0.016937	-0.16098	-0.003815	0.11749	-0.07309	0.039825	0.006104	-0.19272	-0.12116	0.28473	-0.025177	0.007629	-0.56305	-1.3901	0.009613	0.13473	0.015411	0.11169	-0.026398	-0.018311	-0.66345	0.050049	-0.17487	0.23987	-0.82703	-0.000305	-0.006409
10.927	-0.009308	-0.27161	-0.10757	0.024109	0.002289	0.022278	-0.11292	-0.005493	0.12238	-0.038757	0.055847	0.010223	-0.24826	-0.034027	0.37689	-0.025482	0.001221	-0.73624	-1.4005	0.097656	-0.023346	-0.013275	0.1329	0.029907	-0.033264	-0.69366	-0.036621	-0.045319	0.050354	-0.55389	-0.000916	-0.000916
10.928	-0.007019	-0.2861	-0.094757	0.003662	0.001831	0.029144	-0.12909	-0.010529	0.15533	-0.029449	0.085754	0.018158	-0.19043	0.020447	0.30258	-0.031738	-0.02121	-1.0475	-0.68161	0.098114	-0.20706	0.030365	0.11032	0.14374	-0.007172	-0.54932	-0.043335	-0.63553	-0.001068	-0.36102	0.003357	0.002289
10.929	-0.005798	-0.33142	-0.087738	0.006104	0.010071	0.007172	-0.12512	-0.029755	0.13336	-0.034027	0.14725	-0.006561	-0.16327	0.050049	0.12863	-0.032501	-0.042114	-1.2134	-0.66116	-0.058441	-0.043335	-0.059814	0.14191	0.16846	-0.022736	-0.48035	-0.028687	-0.16846	0.10574	-0.12863	0.001831	-0.000916
10.93	-0.02182	-0.34561	-0.10788	-0.003967	0.000305	-0.005646	-0.17136	-0.033264	0.16403	-0.024719	0.16724	0.012665	-0.18341	-0.051422	0.7991	-0.035248	-0.044708	-1.1407	-1.0359	-0.060577	0.16541	-0.088501	0.16144	0.10941	-0.077972	-0.14832	-0.020142	0.30853	0.26016	0.55725	-0.001373	-0.010223
10.931	-0.007629	-0.36652	-0.09903	0.002899	0.004272	0.003815	-0.13626	-0.019989	0.14175	-0.042267	0.098419	0.005035	-0.11475	-0.14038	-0.62576	-0.021667	-0.01297	-0.96664	-0.88821	-0.043488	0.029907	-0.11475	0.20752	0.055237	-0.1181	0.13351	0.027618	0.53436	0.28915	1.2366	0.00061	-0.028992
10.932	-0.011444	-0.37491	-0.091095	0.014038	0.003662	-0.012665	-0.086975	-0.02121	0.14969	-0.041809	0.019989	0.006866	-0.10468	-0.13565	-0.23422	-0.016785	0.009308	-0.84274	-0.43182	-0.032196	-0.005493	-0.10773	0.19974	-0.003052	-0.12741	0.31509	0.094452	0.14496	0.029449	0.7222	0.001373	-0.028076
10.933	-0.010071	-0.38467	-0.048218	0.033417	0.011902	-0.00946	0.006409	-0.011292	0.15427	-0.053253	0.11765	0.009766	-0.026093	-0.12711	-0.50629	-0.016632	0.006104	-0.85831	-0.5542	-0.066376	-0.083313	-0.14282	0.20721	-0.037689	-0.11993	0.47821	0.13672	-0.23407	-0.025177	0.43579	-0.002899	-0.028229
10.934	-0.00351	-0.36713	-0.033417	0.03479	0.005188	0.008087	0.03891	-0.0177	0.14938	-0.083618	0.085297	0.007782	0.10147	-0.10773	-0.16251	-0.011902	0.001678	-0.88928	-0.13168	-0.03418	-0.21698	-0.20142	0.14297	-0.24689	-0.1593	0.49942	0.12711	-0.7048	-0.017548	0.28763	0.001373	-0.033417
10.935	-0.013733	-0.34897	-0.057373	0.008545	0.00824	0.025482	0.003357	-0.012665	0.14542	-0.057678	-0.074921	0.004272	0.057983	-0.13473	-0.029755	0.006256	0.007935	-0.95108	0.077209	-0.015106	-0.19257	-0.22339	0.081787	-0.1004	-0.075226	0.44067	0.15778	0.33585	-0.13794	0.20844	-0.002136	-0.031891
10.936	-0.006256	-0.33859	-0.085602	-0.003967	0.002594	0.024872	-0.008545	-0.012665	0.14557	-0.033569	-0.25253	0.013428	0.013123	-0.045624	-0.020447	-0.009766	0.03418	-0.8667	0.11154	-0.007324	-0.1178	-0.3566	0.13245	-0.040436	-0.057831	0.26413	0.3688	0.38544	-0.010986	0.47852	0.000458	-0.016022
10.937	-0.012817	-0.27176	-0.12146	-0.008698	0.006256	0.012054	0.00824	-0.013885	0.1355	-0.080872	-0.48172	0.006714	0.074921	0.037384	0.04364	-0.00824	0.034637	-0.71915	-0.082245	-0.034332	0.027924	-0.45883	0.14236	0.006866	-0.046844	0.14877	0.50491	0.21164	0.070343	0.63873	-0.000153	-0.007629
10.938	-0.009918	-0.25986	-0.13886	-0.007782	0.005341	0.025787	0.055847	-0.021973	0.12268	-0.025177	-0.22278	0.012665	-0.009918	0.002899	0.12863	-0.032654	0.027466	-0.78217	-0.079041	0.007629	-0.001984	-0.4599	0.12741	0.017242	-0.045166	0.15213	0.5629	0.051117	0.002899	-0.11688	-0.001221	-0.005646
10.939	-0.002289	-0.23315	-0.1329	-0.030823	0.011749	0.017853	0.12344	-0.025787	0.11017	0.01709	0.040894	0.014648	-0.1712	0.052338	0.36529	-0.028381	0.001526	-0.83557	0.40024	-0.028839	-0.15533	-0.25818	0.13443	-0.037537	-0.030823	0.074158	0.43961	-0.025482	0.025635	-0.45578	-0.001526	-0.000458
10.94	0.006104	-0.2092	-0.12512	-0.032654	0.007629	0.013275	0.10284	-0.001221	0.088196	0.012817	0.10452	0.014801	-0.215	0.17654	0.1268	-0.034332	-0.016479	-0.8699	1.4206	-0.040283	-0.041656	-0.1535	0.090942	-0.017853	0.057678	-0.077515	-0.04425	-0.075378	0.12192	-0.096893	-0.007935	-0.005798
10.941	0.007172	-0.24567	-0.12741	-0.035553	0.007782	0.007935	0.084229	-0.005646	0.094147	0.00946	0.043488	0.006409	-0.24124	0.17364	0.12238	-0.014191	-0.005493	-0.92117	0.31311	0.023346	-0.16403	-0.076294	0.11612	-0.03006	0.011139	-0.13184	-0.90103	-0.058441	0.20813	-0.16296	-0.001373	-0.003815
10.942	0.004425	-0.26642	-0.12711	-0.042114	0.01236	0.006409	0.10071	-0.014191	0.10376	-0.001831	-0.097046	0.00061	-0.19623	0.09552	0.069275	-0.025787	0.026093	-0.8931	-0.13534	0.05722	-0.089874	-0.15411	0.056458	-0.035095	-0.056915	-0.005493	-1.0049	-0.066376	0.16052	-0.63705	-0.001984	-0.011597
10.943	0.003357	-0.22919	-0.066528	-0.029755	0.009613	-0.004883	0.022736	-0.016785	0.090485	-0.023804	-0.29938	-0.009308	-0.10376	0.1709	0.006104	-0.023499	0.04303	-0.80872	-0.10147	0.063782	0.18616	-0.1326	0.094147	0.027771	-0.072327	0.10162	-0.66544	-0.086365	0.29175	-0.74081	-0.001678	-0.014343
10.944	-0.002747	-0.23956	-0.05127	-0.027771	0.010376	-0.001221	0.032196	-0.018463	0.092621	0.023956	-0.032043	-0.020905	-0.11658	0.20386	0.8873	-0.02182	0.063477	-0.79254	-0.23834	0.09491	0.12116	0.13657	0.16876	-0.064392	-0.11749	0.091095	-0.29541	-0.11322	0.27298	-1.013	-0.001678	-0.01297
10.945	-0.012054	-0.24963	-0.048981	-0.02594	0.009613	0.012512	0.13718	0.007324	0.078125	0.040283	0.5574	-0.024872	-0.23865	0.11932	0.72144	-0.015106	0.060883	-0.73883	-0.23987	0.062103	-0.10529	0.0737	0.28366	-0.14648	-0.18387	-0.035858	0.11673	-0.10101	0.38849	-1.1028	0.002136	-0.019836
10.946	-0.015717	-0.23346	-0.080719	-0.008087	0.008545	0.001068	0.13229	0.001068	0.085602	0.008392	0.70267	-0.019073	-0.18707	0.20416	0.97046	-0.003204	0.021515	-0.6221	0.064545	0.005341	-0.22797	-0.24017	0.29678	-0.18601	-0.23163	-0.17548	0.47669	-0.025787	0.15442	-0.72739	-0.003662	-0.028229
10.947	-0.008545	-0.21545	-0.16708	0.012054	0.011292	0.001831	0.037994	0.002899	0.095062	-0.008392	0.61661	-0.035248	-0.14358	0.35263	0.42358	-0.006409	0.005035	-0.42679	0.039063	-0.026855	-0.17548	-0.22797	0.27039	-0.18509	-0.28671	-0.10391	0.54275	-0.098114	-0.28412	0.18021	-0.003815	-0.022278
10.948	-0.026245	-0.24551	-0.15427	0.029297	0.010986	0.001068	0.020447	0.005646	0.098877	-0.026398	0.29694	-0.03952	-0.032043	0.29373	-0.45349	-0.00473	-0.015869	-0.25955	-0.12756	-0.030975	-0.032959	-0.067749	0.17929	-0.076904	-0.17273	-0.019836	0.4422	-0.13504	-0.91507	0.60806	-0.002136	-0.012207
